<mxfile host="app.diagrams.net" modified="2022-02-28T03:18:31.901Z" agent="5.0 (Macintosh; Intel Mac OS X 10_15_7) AppleWebKit/537.36 (KHTML, like Gecko) Chrome/96.0.4664.110 Safari/537.36" etag="Vxaxu9efRD2w2CuA8iZ3" version="16.2.7" type="github">
  <diagram id="i8GZwPt_mKK-n1nKflaN" name="Page-1">
    <mxGraphModel dx="1797" dy="628" grid="1" gridSize="10" guides="1" tooltips="1" connect="1" arrows="1" fold="1" page="1" pageScale="1" pageWidth="827" pageHeight="1169" math="0" shadow="0">
      <root>
        <mxCell id="0" />
        <mxCell id="1" parent="0" />
        <mxCell id="Rfo35h5xhCLVBbVGTMoI-2" value="bug报告" style="rounded=0;whiteSpace=wrap;html=1;" vertex="1" parent="1">
          <mxGeometry x="177" y="280" width="120" height="60" as="geometry" />
        </mxCell>
        <mxCell id="Rfo35h5xhCLVBbVGTMoI-3" value="报告ID" style="rounded=1;whiteSpace=wrap;html=1;" vertex="1" parent="1">
          <mxGeometry x="100" y="140" width="70" height="40" as="geometry" />
        </mxCell>
        <mxCell id="Rfo35h5xhCLVBbVGTMoI-4" value="摘要" style="rounded=1;whiteSpace=wrap;html=1;" vertex="1" parent="1">
          <mxGeometry x="190" y="120" width="74" height="40" as="geometry" />
        </mxCell>
        <mxCell id="Rfo35h5xhCLVBbVGTMoI-5" value="描述" style="rounded=1;whiteSpace=wrap;html=1;" vertex="1" parent="1">
          <mxGeometry x="280" y="140" width="74" height="40" as="geometry" />
        </mxCell>
        <mxCell id="Rfo35h5xhCLVBbVGTMoI-9" value="" style="endArrow=none;html=1;rounded=0;exitX=0.925;exitY=1;exitDx=0;exitDy=0;exitPerimeter=0;entryX=0.4;entryY=-0.017;entryDx=0;entryDy=0;entryPerimeter=0;" edge="1" parent="1" source="Rfo35h5xhCLVBbVGTMoI-3" target="Rfo35h5xhCLVBbVGTMoI-2">
          <mxGeometry width="50" height="50" relative="1" as="geometry">
            <mxPoint x="390" y="360" as="sourcePoint" />
            <mxPoint x="440" y="310" as="targetPoint" />
          </mxGeometry>
        </mxCell>
        <mxCell id="Rfo35h5xhCLVBbVGTMoI-10" value="" style="endArrow=none;html=1;rounded=0;exitX=0.5;exitY=1;exitDx=0;exitDy=0;entryX=0.392;entryY=-0.05;entryDx=0;entryDy=0;entryPerimeter=0;" edge="1" parent="1" source="Rfo35h5xhCLVBbVGTMoI-4" target="Rfo35h5xhCLVBbVGTMoI-2">
          <mxGeometry width="50" height="50" relative="1" as="geometry">
            <mxPoint x="164.75" y="260" as="sourcePoint" />
            <mxPoint x="237" y="310" as="targetPoint" />
          </mxGeometry>
        </mxCell>
        <mxCell id="Rfo35h5xhCLVBbVGTMoI-11" value="" style="endArrow=none;html=1;rounded=0;exitX=0.25;exitY=1;exitDx=0;exitDy=0;entryX=0.425;entryY=0;entryDx=0;entryDy=0;entryPerimeter=0;" edge="1" parent="1" source="Rfo35h5xhCLVBbVGTMoI-5" target="Rfo35h5xhCLVBbVGTMoI-2">
          <mxGeometry width="50" height="50" relative="1" as="geometry">
            <mxPoint x="174.75" y="270" as="sourcePoint" />
            <mxPoint x="258" y="328.98" as="targetPoint" />
          </mxGeometry>
        </mxCell>
        <mxCell id="Rfo35h5xhCLVBbVGTMoI-12" value="源文件" style="rounded=0;whiteSpace=wrap;html=1;" vertex="1" parent="1">
          <mxGeometry x="334" y="560" width="120" height="60" as="geometry" />
        </mxCell>
        <mxCell id="Rfo35h5xhCLVBbVGTMoI-13" value="源文件ID" style="rounded=1;whiteSpace=wrap;html=1;" vertex="1" parent="1">
          <mxGeometry x="240" y="650" width="70" height="40" as="geometry" />
        </mxCell>
        <mxCell id="Rfo35h5xhCLVBbVGTMoI-14" value="代码" style="rounded=1;whiteSpace=wrap;html=1;" vertex="1" parent="1">
          <mxGeometry x="320" y="670" width="74" height="40" as="geometry" />
        </mxCell>
        <mxCell id="Rfo35h5xhCLVBbVGTMoI-16" value="" style="endArrow=none;html=1;rounded=0;exitX=1;exitY=0;exitDx=0;exitDy=0;" edge="1" parent="1" source="Rfo35h5xhCLVBbVGTMoI-13">
          <mxGeometry width="50" height="50" relative="1" as="geometry">
            <mxPoint x="554" y="660" as="sourcePoint" />
            <mxPoint x="400" y="620" as="targetPoint" />
          </mxGeometry>
        </mxCell>
        <mxCell id="Rfo35h5xhCLVBbVGTMoI-17" value="" style="endArrow=none;html=1;rounded=0;exitX=0.5;exitY=0;exitDx=0;exitDy=0;entryX=0.5;entryY=1;entryDx=0;entryDy=0;" edge="1" parent="1" source="Rfo35h5xhCLVBbVGTMoI-14" target="Rfo35h5xhCLVBbVGTMoI-12">
          <mxGeometry width="50" height="50" relative="1" as="geometry">
            <mxPoint x="328.75" y="560" as="sourcePoint" />
            <mxPoint x="401" y="600" as="targetPoint" />
          </mxGeometry>
        </mxCell>
        <mxCell id="Rfo35h5xhCLVBbVGTMoI-19" value="bug修复记录" style="rounded=0;whiteSpace=wrap;html=1;" vertex="1" parent="1">
          <mxGeometry x="36" y="446" width="120" height="60" as="geometry" />
        </mxCell>
        <mxCell id="Rfo35h5xhCLVBbVGTMoI-20" value="源文件ID" style="rounded=1;whiteSpace=wrap;html=1;" vertex="1" parent="1">
          <mxGeometry x="40" y="560" width="70" height="40" as="geometry" />
        </mxCell>
        <mxCell id="Rfo35h5xhCLVBbVGTMoI-21" value="报告ID" style="rounded=1;whiteSpace=wrap;html=1;" vertex="1" parent="1">
          <mxGeometry x="116" y="540" width="74" height="40" as="geometry" />
        </mxCell>
        <mxCell id="Rfo35h5xhCLVBbVGTMoI-22" value="" style="endArrow=none;html=1;rounded=0;exitX=0.5;exitY=0;exitDx=0;exitDy=0;entryX=0.433;entryY=1.033;entryDx=0;entryDy=0;entryPerimeter=0;" edge="1" parent="1" source="Rfo35h5xhCLVBbVGTMoI-20" target="Rfo35h5xhCLVBbVGTMoI-19">
          <mxGeometry width="50" height="50" relative="1" as="geometry">
            <mxPoint x="302" y="710" as="sourcePoint" />
            <mxPoint x="352" y="660" as="targetPoint" />
          </mxGeometry>
        </mxCell>
        <mxCell id="Rfo35h5xhCLVBbVGTMoI-23" value="" style="endArrow=none;html=1;rounded=0;exitX=0.5;exitY=0;exitDx=0;exitDy=0;entryX=0.433;entryY=0.983;entryDx=0;entryDy=0;entryPerimeter=0;" edge="1" parent="1" source="Rfo35h5xhCLVBbVGTMoI-21" target="Rfo35h5xhCLVBbVGTMoI-19">
          <mxGeometry width="50" height="50" relative="1" as="geometry">
            <mxPoint x="76.75" y="610" as="sourcePoint" />
            <mxPoint x="149" y="660" as="targetPoint" />
          </mxGeometry>
        </mxCell>
        <mxCell id="Rfo35h5xhCLVBbVGTMoI-26" value="函数表" style="rounded=0;whiteSpace=wrap;html=1;" vertex="1" parent="1">
          <mxGeometry x="587" y="232.5" width="120" height="60" as="geometry" />
        </mxCell>
        <mxCell id="Rfo35h5xhCLVBbVGTMoI-27" value="源文件ID" style="rounded=1;whiteSpace=wrap;html=1;" vertex="1" parent="1">
          <mxGeometry x="520" y="177.5" width="70" height="40" as="geometry" />
        </mxCell>
        <mxCell id="Rfo35h5xhCLVBbVGTMoI-28" value="函数体" style="rounded=1;whiteSpace=wrap;html=1;" vertex="1" parent="1">
          <mxGeometry x="600" y="140" width="74" height="40" as="geometry" />
        </mxCell>
        <mxCell id="Rfo35h5xhCLVBbVGTMoI-29" value="" style="endArrow=none;html=1;rounded=0;exitX=0.925;exitY=1;exitDx=0;exitDy=0;exitPerimeter=0;entryX=0.4;entryY=-0.017;entryDx=0;entryDy=0;entryPerimeter=0;" edge="1" parent="1" source="Rfo35h5xhCLVBbVGTMoI-27" target="Rfo35h5xhCLVBbVGTMoI-26">
          <mxGeometry width="50" height="50" relative="1" as="geometry">
            <mxPoint x="800" y="327.5" as="sourcePoint" />
            <mxPoint x="850" y="277.5" as="targetPoint" />
          </mxGeometry>
        </mxCell>
        <mxCell id="Rfo35h5xhCLVBbVGTMoI-30" value="" style="endArrow=none;html=1;rounded=0;exitX=0.5;exitY=1;exitDx=0;exitDy=0;entryX=0.417;entryY=-0.033;entryDx=0;entryDy=0;entryPerimeter=0;" edge="1" parent="1" source="Rfo35h5xhCLVBbVGTMoI-28" target="Rfo35h5xhCLVBbVGTMoI-26">
          <mxGeometry width="50" height="50" relative="1" as="geometry">
            <mxPoint x="574.75" y="227.5" as="sourcePoint" />
            <mxPoint x="640" y="252.5" as="targetPoint" />
          </mxGeometry>
        </mxCell>
        <mxCell id="Rfo35h5xhCLVBbVGTMoI-31" value="特征表" style="rounded=0;whiteSpace=wrap;html=1;" vertex="1" parent="1">
          <mxGeometry x="590" y="410" width="120" height="60" as="geometry" />
        </mxCell>
        <mxCell id="Rfo35h5xhCLVBbVGTMoI-32" value="源文件ID" style="rounded=1;whiteSpace=wrap;html=1;" vertex="1" parent="1">
          <mxGeometry x="757" y="280" width="70" height="40" as="geometry" />
        </mxCell>
        <mxCell id="Rfo35h5xhCLVBbVGTMoI-34" value="" style="endArrow=none;html=1;rounded=0;exitX=0.386;exitY=1;exitDx=0;exitDy=0;entryX=1;entryY=0.5;entryDx=0;entryDy=0;exitPerimeter=0;" edge="1" parent="1" source="Rfo35h5xhCLVBbVGTMoI-32" target="Rfo35h5xhCLVBbVGTMoI-31">
          <mxGeometry width="50" height="50" relative="1" as="geometry">
            <mxPoint x="1090" y="460" as="sourcePoint" />
            <mxPoint x="720" y="400" as="targetPoint" />
          </mxGeometry>
        </mxCell>
        <mxCell id="Rfo35h5xhCLVBbVGTMoI-36" value="词法特征1" style="rounded=1;whiteSpace=wrap;html=1;" vertex="1" parent="1">
          <mxGeometry x="870" y="366" width="74" height="40" as="geometry" />
        </mxCell>
        <mxCell id="Rfo35h5xhCLVBbVGTMoI-37" value="词法特征2" style="rounded=1;whiteSpace=wrap;html=1;" vertex="1" parent="1">
          <mxGeometry x="890" y="410" width="74" height="40" as="geometry" />
        </mxCell>
        <mxCell id="Rfo35h5xhCLVBbVGTMoI-38" value="词法特征19" style="rounded=1;whiteSpace=wrap;html=1;" vertex="1" parent="1">
          <mxGeometry x="890" y="460" width="74" height="40" as="geometry" />
        </mxCell>
        <mxCell id="Rfo35h5xhCLVBbVGTMoI-39" value="版本" style="rounded=1;whiteSpace=wrap;html=1;" vertex="1" parent="1">
          <mxGeometry x="413.5" y="670" width="74" height="40" as="geometry" />
        </mxCell>
        <mxCell id="Rfo35h5xhCLVBbVGTMoI-40" value="摘要-函数特征-mean" style="rounded=1;whiteSpace=wrap;html=1;" vertex="1" parent="1">
          <mxGeometry x="850" y="510" width="70" height="40" as="geometry" />
        </mxCell>
        <mxCell id="Rfo35h5xhCLVBbVGTMoI-41" value="摘要-函数特征-max" style="rounded=1;whiteSpace=wrap;html=1;" vertex="1" parent="1">
          <mxGeometry x="800" y="560" width="80" height="40" as="geometry" />
        </mxCell>
        <mxCell id="Rfo35h5xhCLVBbVGTMoI-42" value="描述-函数特征-max" style="rounded=1;whiteSpace=wrap;html=1;" vertex="1" parent="1">
          <mxGeometry x="610" y="580" width="80" height="40" as="geometry" />
        </mxCell>
        <mxCell id="Rfo35h5xhCLVBbVGTMoI-43" value="描述-函数特征-max" style="rounded=1;whiteSpace=wrap;html=1;" vertex="1" parent="1">
          <mxGeometry x="707" y="580" width="80" height="40" as="geometry" />
        </mxCell>
        <mxCell id="Rfo35h5xhCLVBbVGTMoI-44" value="函数-词向量" style="rounded=1;whiteSpace=wrap;html=1;" vertex="1" parent="1">
          <mxGeometry x="683" y="170" width="74" height="40" as="geometry" />
        </mxCell>
        <mxCell id="Rfo35h5xhCLVBbVGTMoI-45" value="摘要-词向量" style="rounded=1;whiteSpace=wrap;html=1;" vertex="1" parent="1">
          <mxGeometry x="340" y="190" width="74" height="40" as="geometry" />
        </mxCell>
        <mxCell id="Rfo35h5xhCLVBbVGTMoI-46" value="描述-词向量" style="rounded=1;whiteSpace=wrap;html=1;" vertex="1" parent="1">
          <mxGeometry x="354" y="240" width="74" height="40" as="geometry" />
        </mxCell>
        <mxCell id="Rfo35h5xhCLVBbVGTMoI-47" value="类名" style="rounded=1;whiteSpace=wrap;html=1;" vertex="1" parent="1">
          <mxGeometry x="487.5" y="630" width="70" height="40" as="geometry" />
        </mxCell>
        <mxCell id="Rfo35h5xhCLVBbVGTMoI-48" value="报告时间" style="rounded=1;whiteSpace=wrap;html=1;" vertex="1" parent="1">
          <mxGeometry x="40" y="190" width="74" height="40" as="geometry" />
        </mxCell>
        <mxCell id="Rfo35h5xhCLVBbVGTMoI-49" value="报告人" style="rounded=1;whiteSpace=wrap;html=1;" vertex="1" parent="1">
          <mxGeometry x="40" y="240" width="74" height="40" as="geometry" />
        </mxCell>
        <mxCell id="Rfo35h5xhCLVBbVGTMoI-50" value="" style="endArrow=none;html=1;rounded=0;exitX=1;exitY=0.5;exitDx=0;exitDy=0;" edge="1" parent="1" source="Rfo35h5xhCLVBbVGTMoI-48">
          <mxGeometry width="50" height="50" relative="1" as="geometry">
            <mxPoint x="164.75" y="260" as="sourcePoint" />
            <mxPoint x="230" y="280" as="targetPoint" />
          </mxGeometry>
        </mxCell>
        <mxCell id="Rfo35h5xhCLVBbVGTMoI-51" value="" style="endArrow=none;html=1;rounded=0;exitX=1;exitY=0.5;exitDx=0;exitDy=0;" edge="1" parent="1" source="Rfo35h5xhCLVBbVGTMoI-49">
          <mxGeometry width="50" height="50" relative="1" as="geometry">
            <mxPoint x="124" y="240" as="sourcePoint" />
            <mxPoint x="220" y="280" as="targetPoint" />
          </mxGeometry>
        </mxCell>
        <mxCell id="Rfo35h5xhCLVBbVGTMoI-52" value="" style="endArrow=none;html=1;rounded=0;exitX=0;exitY=0.5;exitDx=0;exitDy=0;entryX=0.417;entryY=-0.017;entryDx=0;entryDy=0;entryPerimeter=0;" edge="1" parent="1" source="Rfo35h5xhCLVBbVGTMoI-45" target="Rfo35h5xhCLVBbVGTMoI-2">
          <mxGeometry width="50" height="50" relative="1" as="geometry">
            <mxPoint x="134" y="250" as="sourcePoint" />
            <mxPoint x="204" y="320" as="targetPoint" />
          </mxGeometry>
        </mxCell>
        <mxCell id="Rfo35h5xhCLVBbVGTMoI-53" value="" style="endArrow=none;html=1;rounded=0;exitX=0.425;exitY=-0.033;exitDx=0;exitDy=0;entryX=0;entryY=0.5;entryDx=0;entryDy=0;exitPerimeter=0;" edge="1" parent="1" source="Rfo35h5xhCLVBbVGTMoI-2" target="Rfo35h5xhCLVBbVGTMoI-46">
          <mxGeometry width="50" height="50" relative="1" as="geometry">
            <mxPoint x="300" y="260" as="sourcePoint" />
            <mxPoint x="370" y="330" as="targetPoint" />
          </mxGeometry>
        </mxCell>
        <mxCell id="Rfo35h5xhCLVBbVGTMoI-54" value="" style="endArrow=none;html=1;rounded=0;exitX=0.5;exitY=1;exitDx=0;exitDy=0;entryX=0.5;entryY=0;entryDx=0;entryDy=0;" edge="1" parent="1" source="Rfo35h5xhCLVBbVGTMoI-12" target="Rfo35h5xhCLVBbVGTMoI-39">
          <mxGeometry width="50" height="50" relative="1" as="geometry">
            <mxPoint x="-72" y="590" as="sourcePoint" />
            <mxPoint x="-2" y="660" as="targetPoint" />
          </mxGeometry>
        </mxCell>
        <mxCell id="Rfo35h5xhCLVBbVGTMoI-55" value="" style="endArrow=none;html=1;rounded=0;entryX=0;entryY=0.5;entryDx=0;entryDy=0;" edge="1" parent="1" target="Rfo35h5xhCLVBbVGTMoI-47">
          <mxGeometry width="50" height="50" relative="1" as="geometry">
            <mxPoint x="394" y="620" as="sourcePoint" />
            <mxPoint x="500" y="530" as="targetPoint" />
          </mxGeometry>
        </mxCell>
        <mxCell id="Rfo35h5xhCLVBbVGTMoI-56" value="" style="endArrow=none;html=1;rounded=0;exitX=0;exitY=0.75;exitDx=0;exitDy=0;entryX=1;entryY=0.5;entryDx=0;entryDy=0;" edge="1" parent="1" source="Rfo35h5xhCLVBbVGTMoI-36" target="Rfo35h5xhCLVBbVGTMoI-31">
          <mxGeometry width="50" height="50" relative="1" as="geometry">
            <mxPoint x="947" y="310" as="sourcePoint" />
            <mxPoint x="670" y="410" as="targetPoint" />
          </mxGeometry>
        </mxCell>
        <mxCell id="Rfo35h5xhCLVBbVGTMoI-57" value="" style="endArrow=none;html=1;rounded=0;exitX=0;exitY=0.5;exitDx=0;exitDy=0;entryX=1;entryY=0.5;entryDx=0;entryDy=0;" edge="1" parent="1" source="Rfo35h5xhCLVBbVGTMoI-37" target="Rfo35h5xhCLVBbVGTMoI-31">
          <mxGeometry width="50" height="50" relative="1" as="geometry">
            <mxPoint x="1030" y="310" as="sourcePoint" />
            <mxPoint x="670" y="410" as="targetPoint" />
          </mxGeometry>
        </mxCell>
        <mxCell id="Rfo35h5xhCLVBbVGTMoI-58" value="" style="endArrow=none;html=1;rounded=0;exitX=0;exitY=0.5;exitDx=0;exitDy=0;entryX=1;entryY=0.5;entryDx=0;entryDy=0;" edge="1" parent="1" source="Rfo35h5xhCLVBbVGTMoI-38" target="Rfo35h5xhCLVBbVGTMoI-31">
          <mxGeometry width="50" height="50" relative="1" as="geometry">
            <mxPoint x="1040" y="320" as="sourcePoint" />
            <mxPoint x="680" y="410" as="targetPoint" />
          </mxGeometry>
        </mxCell>
        <mxCell id="Rfo35h5xhCLVBbVGTMoI-65" value="包含" style="rhombus;whiteSpace=wrap;html=1;" vertex="1" parent="1">
          <mxGeometry x="490" y="490" width="80" height="40" as="geometry" />
        </mxCell>
        <mxCell id="Rfo35h5xhCLVBbVGTMoI-69" value="" style="endArrow=none;html=1;rounded=0;entryX=0.5;entryY=1;entryDx=0;entryDy=0;exitX=0.575;exitY=-0.033;exitDx=0;exitDy=0;exitPerimeter=0;" edge="1" parent="1" source="Rfo35h5xhCLVBbVGTMoI-12" target="Rfo35h5xhCLVBbVGTMoI-65">
          <mxGeometry width="50" height="50" relative="1" as="geometry">
            <mxPoint x="630" y="340" as="sourcePoint" />
            <mxPoint x="630" y="310" as="targetPoint" />
          </mxGeometry>
        </mxCell>
        <mxCell id="Rfo35h5xhCLVBbVGTMoI-72" value="1" style="edgeLabel;html=1;align=center;verticalAlign=middle;resizable=0;points=[];" vertex="1" connectable="0" parent="Rfo35h5xhCLVBbVGTMoI-69">
          <mxGeometry x="0.16" y="-3" relative="1" as="geometry">
            <mxPoint as="offset" />
          </mxGeometry>
        </mxCell>
        <mxCell id="Rfo35h5xhCLVBbVGTMoI-73" value="包含" style="rhombus;whiteSpace=wrap;html=1;" vertex="1" parent="1">
          <mxGeometry x="90" y="370" width="80" height="40" as="geometry" />
        </mxCell>
        <mxCell id="Rfo35h5xhCLVBbVGTMoI-76" value="" style="endArrow=none;html=1;rounded=0;exitX=0.5;exitY=1;exitDx=0;exitDy=0;entryX=0.5;entryY=0;entryDx=0;entryDy=0;" edge="1" parent="1" source="Rfo35h5xhCLVBbVGTMoI-2" target="Rfo35h5xhCLVBbVGTMoI-73">
          <mxGeometry width="50" height="50" relative="1" as="geometry">
            <mxPoint x="350" y="500" as="sourcePoint" />
            <mxPoint x="400" y="450" as="targetPoint" />
          </mxGeometry>
        </mxCell>
        <mxCell id="Rfo35h5xhCLVBbVGTMoI-84" value="1" style="edgeLabel;html=1;align=center;verticalAlign=middle;resizable=0;points=[];" vertex="1" connectable="0" parent="Rfo35h5xhCLVBbVGTMoI-76">
          <mxGeometry x="0.1636" relative="1" as="geometry">
            <mxPoint y="1" as="offset" />
          </mxGeometry>
        </mxCell>
        <mxCell id="Rfo35h5xhCLVBbVGTMoI-80" value="包含" style="rhombus;whiteSpace=wrap;html=1;" vertex="1" parent="1">
          <mxGeometry x="240" y="490" width="80" height="40" as="geometry" />
        </mxCell>
        <mxCell id="Rfo35h5xhCLVBbVGTMoI-83" value="" style="endArrow=none;html=1;rounded=0;exitX=0.5;exitY=1;exitDx=0;exitDy=0;entryX=0.5;entryY=0;entryDx=0;entryDy=0;" edge="1" parent="1" source="Rfo35h5xhCLVBbVGTMoI-73" target="Rfo35h5xhCLVBbVGTMoI-19">
          <mxGeometry width="50" height="50" relative="1" as="geometry">
            <mxPoint x="73" y="660" as="sourcePoint" />
            <mxPoint x="90" y="440" as="targetPoint" />
          </mxGeometry>
        </mxCell>
        <mxCell id="Rfo35h5xhCLVBbVGTMoI-85" value="1" style="edgeLabel;html=1;align=center;verticalAlign=middle;resizable=0;points=[];" vertex="1" connectable="0" parent="Rfo35h5xhCLVBbVGTMoI-83">
          <mxGeometry x="0.1228" y="3" relative="1" as="geometry">
            <mxPoint as="offset" />
          </mxGeometry>
        </mxCell>
        <mxCell id="Rfo35h5xhCLVBbVGTMoI-89" value="1" style="endArrow=none;html=1;rounded=0;entryX=1;entryY=0.5;entryDx=0;entryDy=0;exitX=0;exitY=0.5;exitDx=0;exitDy=0;" edge="1" parent="1" source="Rfo35h5xhCLVBbVGTMoI-80" target="Rfo35h5xhCLVBbVGTMoI-19">
          <mxGeometry width="50" height="50" relative="1" as="geometry">
            <mxPoint x="46" y="570" as="sourcePoint" />
            <mxPoint x="96" y="520" as="targetPoint" />
          </mxGeometry>
        </mxCell>
        <mxCell id="Rfo35h5xhCLVBbVGTMoI-91" style="edgeStyle=orthogonalEdgeStyle;rounded=0;orthogonalLoop=1;jettySize=auto;html=1;exitX=0.5;exitY=1;exitDx=0;exitDy=0;" edge="1" parent="1" source="Rfo35h5xhCLVBbVGTMoI-80" target="Rfo35h5xhCLVBbVGTMoI-80">
          <mxGeometry relative="1" as="geometry" />
        </mxCell>
        <mxCell id="Rfo35h5xhCLVBbVGTMoI-92" value="相关性得分" style="rounded=1;whiteSpace=wrap;html=1;" vertex="1" parent="1">
          <mxGeometry x="-34" y="520" width="70" height="40" as="geometry" />
        </mxCell>
        <mxCell id="Rfo35h5xhCLVBbVGTMoI-93" value="" style="endArrow=none;html=1;rounded=0;exitX=1;exitY=0;exitDx=0;exitDy=0;entryX=0.447;entryY=0.989;entryDx=0;entryDy=0;entryPerimeter=0;" edge="1" parent="1" source="Rfo35h5xhCLVBbVGTMoI-92" target="Rfo35h5xhCLVBbVGTMoI-19">
          <mxGeometry width="50" height="50" relative="1" as="geometry">
            <mxPoint x="47" y="580" as="sourcePoint" />
            <mxPoint x="86" y="510" as="targetPoint" />
          </mxGeometry>
        </mxCell>
        <mxCell id="Rfo35h5xhCLVBbVGTMoI-95" value="报告ID" style="rounded=1;whiteSpace=wrap;html=1;" vertex="1" parent="1">
          <mxGeometry x="827" y="320" width="70" height="40" as="geometry" />
        </mxCell>
        <mxCell id="Rfo35h5xhCLVBbVGTMoI-96" value="" style="endArrow=none;html=1;rounded=0;exitX=0;exitY=0.75;exitDx=0;exitDy=0;" edge="1" parent="1" source="Rfo35h5xhCLVBbVGTMoI-95">
          <mxGeometry width="50" height="50" relative="1" as="geometry">
            <mxPoint x="794.02" y="330" as="sourcePoint" />
            <mxPoint x="710" y="440" as="targetPoint" />
          </mxGeometry>
        </mxCell>
        <mxCell id="Rfo35h5xhCLVBbVGTMoI-97" value="" style="endArrow=none;html=1;rounded=0;exitX=0;exitY=0;exitDx=0;exitDy=0;" edge="1" parent="1" source="Rfo35h5xhCLVBbVGTMoI-40">
          <mxGeometry width="50" height="50" relative="1" as="geometry">
            <mxPoint x="900" y="490" as="sourcePoint" />
            <mxPoint x="710" y="440" as="targetPoint" />
          </mxGeometry>
        </mxCell>
        <mxCell id="Rfo35h5xhCLVBbVGTMoI-98" value="" style="endArrow=none;html=1;rounded=0;exitX=0;exitY=0;exitDx=0;exitDy=0;entryX=1;entryY=0.5;entryDx=0;entryDy=0;" edge="1" parent="1" source="Rfo35h5xhCLVBbVGTMoI-41" target="Rfo35h5xhCLVBbVGTMoI-31">
          <mxGeometry width="50" height="50" relative="1" as="geometry">
            <mxPoint x="910" y="500" as="sourcePoint" />
            <mxPoint x="730" y="460" as="targetPoint" />
          </mxGeometry>
        </mxCell>
        <mxCell id="Rfo35h5xhCLVBbVGTMoI-99" value="" style="endArrow=none;html=1;rounded=0;exitX=0.5;exitY=0;exitDx=0;exitDy=0;" edge="1" parent="1" source="Rfo35h5xhCLVBbVGTMoI-43">
          <mxGeometry width="50" height="50" relative="1" as="geometry">
            <mxPoint x="920" y="510" as="sourcePoint" />
            <mxPoint x="710" y="440" as="targetPoint" />
          </mxGeometry>
        </mxCell>
        <mxCell id="Rfo35h5xhCLVBbVGTMoI-100" value="" style="endArrow=none;html=1;rounded=0;exitX=0.925;exitY=0;exitDx=0;exitDy=0;exitPerimeter=0;" edge="1" parent="1" source="Rfo35h5xhCLVBbVGTMoI-42">
          <mxGeometry width="50" height="50" relative="1" as="geometry">
            <mxPoint x="930" y="520" as="sourcePoint" />
            <mxPoint x="710" y="440" as="targetPoint" />
          </mxGeometry>
        </mxCell>
        <mxCell id="Rfo35h5xhCLVBbVGTMoI-101" value="" style="endArrow=none;html=1;rounded=0;exitX=0;exitY=1;exitDx=0;exitDy=0;" edge="1" parent="1" source="Rfo35h5xhCLVBbVGTMoI-44">
          <mxGeometry width="50" height="50" relative="1" as="geometry">
            <mxPoint x="657" y="177.5" as="sourcePoint" />
            <mxPoint x="640" y="230" as="targetPoint" />
          </mxGeometry>
        </mxCell>
        <mxCell id="Rfo35h5xhCLVBbVGTMoI-103" value="1" style="endArrow=none;html=1;rounded=0;entryX=0.5;entryY=1;entryDx=0;entryDy=0;exitX=0.5;exitY=0;exitDx=0;exitDy=0;" edge="1" parent="1" source="Rfo35h5xhCLVBbVGTMoI-12" target="Rfo35h5xhCLVBbVGTMoI-107">
          <mxGeometry width="50" height="50" relative="1" as="geometry">
            <mxPoint x="204" y="611" as="sourcePoint" />
            <mxPoint x="274" y="601" as="targetPoint" />
          </mxGeometry>
        </mxCell>
        <mxCell id="Rfo35h5xhCLVBbVGTMoI-105" value="" style="endArrow=none;html=1;rounded=0;entryX=0;entryY=0.75;entryDx=0;entryDy=0;exitX=0.5;exitY=0;exitDx=0;exitDy=0;" edge="1" parent="1" source="Rfo35h5xhCLVBbVGTMoI-65" target="Rfo35h5xhCLVBbVGTMoI-31">
          <mxGeometry width="50" height="50" relative="1" as="geometry">
            <mxPoint x="413" y="568.02" as="sourcePoint" />
            <mxPoint x="490" y="540" as="targetPoint" />
          </mxGeometry>
        </mxCell>
        <mxCell id="Rfo35h5xhCLVBbVGTMoI-106" value="1" style="edgeLabel;html=1;align=center;verticalAlign=middle;resizable=0;points=[];" vertex="1" connectable="0" parent="Rfo35h5xhCLVBbVGTMoI-105">
          <mxGeometry x="0.16" y="-3" relative="1" as="geometry">
            <mxPoint as="offset" />
          </mxGeometry>
        </mxCell>
        <mxCell id="Rfo35h5xhCLVBbVGTMoI-107" value="包含" style="rhombus;whiteSpace=wrap;html=1;" vertex="1" parent="1">
          <mxGeometry x="428" y="410" width="80" height="40" as="geometry" />
        </mxCell>
        <mxCell id="Rfo35h5xhCLVBbVGTMoI-109" value="n" style="endArrow=none;html=1;rounded=0;entryX=0;entryY=1;entryDx=0;entryDy=0;exitX=0.5;exitY=0;exitDx=0;exitDy=0;" edge="1" parent="1" source="Rfo35h5xhCLVBbVGTMoI-107" target="Rfo35h5xhCLVBbVGTMoI-26">
          <mxGeometry width="50" height="50" relative="1" as="geometry">
            <mxPoint x="404" y="570" as="sourcePoint" />
            <mxPoint x="444" y="460" as="targetPoint" />
          </mxGeometry>
        </mxCell>
        <mxCell id="Rfo35h5xhCLVBbVGTMoI-111" value="n" style="endArrow=none;html=1;rounded=0;entryX=1;entryY=0.5;entryDx=0;entryDy=0;exitX=0.5;exitY=0;exitDx=0;exitDy=0;" edge="1" parent="1" source="Rfo35h5xhCLVBbVGTMoI-12" target="Rfo35h5xhCLVBbVGTMoI-80">
          <mxGeometry width="50" height="50" relative="1" as="geometry">
            <mxPoint x="200" y="520" as="sourcePoint" />
            <mxPoint x="166" y="486" as="targetPoint" />
          </mxGeometry>
        </mxCell>
        <mxCell id="Rfo35h5xhCLVBbVGTMoI-112" value="包含" style="rhombus;whiteSpace=wrap;html=1;" vertex="1" parent="1">
          <mxGeometry x="407.5" y="310" width="80" height="50" as="geometry" />
        </mxCell>
        <mxCell id="Rfo35h5xhCLVBbVGTMoI-113" value="" style="endArrow=none;html=1;rounded=0;exitX=0;exitY=0.5;exitDx=0;exitDy=0;entryX=1;entryY=0.5;entryDx=0;entryDy=0;" edge="1" parent="1" source="Rfo35h5xhCLVBbVGTMoI-112" target="Rfo35h5xhCLVBbVGTMoI-2">
          <mxGeometry width="50" height="50" relative="1" as="geometry">
            <mxPoint x="247.00000000000023" y="350" as="sourcePoint" />
            <mxPoint x="140" y="380" as="targetPoint" />
          </mxGeometry>
        </mxCell>
        <mxCell id="Rfo35h5xhCLVBbVGTMoI-114" value="1" style="edgeLabel;html=1;align=center;verticalAlign=middle;resizable=0;points=[];" vertex="1" connectable="0" parent="Rfo35h5xhCLVBbVGTMoI-113">
          <mxGeometry x="0.1636" relative="1" as="geometry">
            <mxPoint y="1" as="offset" />
          </mxGeometry>
        </mxCell>
        <mxCell id="Rfo35h5xhCLVBbVGTMoI-115" value="" style="endArrow=none;html=1;rounded=0;exitX=0;exitY=0;exitDx=0;exitDy=0;entryX=1;entryY=0.5;entryDx=0;entryDy=0;" edge="1" parent="1" source="Rfo35h5xhCLVBbVGTMoI-31" target="Rfo35h5xhCLVBbVGTMoI-112">
          <mxGeometry width="50" height="50" relative="1" as="geometry">
            <mxPoint x="257.0000000000002" y="360" as="sourcePoint" />
            <mxPoint x="150" y="390" as="targetPoint" />
          </mxGeometry>
        </mxCell>
        <mxCell id="Rfo35h5xhCLVBbVGTMoI-116" value="1" style="edgeLabel;html=1;align=center;verticalAlign=middle;resizable=0;points=[];" vertex="1" connectable="0" parent="Rfo35h5xhCLVBbVGTMoI-115">
          <mxGeometry x="0.1636" relative="1" as="geometry">
            <mxPoint y="1" as="offset" />
          </mxGeometry>
        </mxCell>
      </root>
    </mxGraphModel>
  </diagram>
</mxfile>
